<svg width="70" height="32" viewBox="0 0 70 32" fill="none" xmlns="http://www.w3.org/2000/svg">
<rect x="0.453125" y="0.223358" width="69" height="31" rx="8" fill="#4D525C"/>
<path d="M23.4194 5.43681C23.4194 5.24781 23.496 5.06655 23.6324 4.93291C23.7688 4.79926 23.9538 4.72418 24.1467 4.72418H26.3285C26.4907 4.72423 26.6483 4.77742 26.7761 4.87529C26.904 4.97317 26.9947 5.11012 27.034 5.26435L27.6231 7.57469H44.5107C44.6175 7.57479 44.7229 7.59793 44.8195 7.64246C44.9162 7.687 45.0016 7.75184 45.0698 7.83238C45.138 7.91292 45.1872 8.00718 45.214 8.10847C45.2408 8.20976 45.2445 8.31559 45.2249 8.41844L43.043 19.8205C43.0118 19.9838 42.9234 20.1313 42.7929 20.2374C42.6625 20.3436 42.4984 20.4018 42.3288 20.402H29.2377C29.0681 20.4018 28.9039 20.3436 28.7735 20.2374C28.6431 20.1313 28.5547 19.9838 28.5235 19.8205L26.3431 8.43982L25.7612 6.14944H24.1467C23.9538 6.14944 23.7688 6.07436 23.6324 5.94071C23.496 5.80707 23.4194 5.62581 23.4194 5.43681ZM27.9315 8.99994L29.8413 18.9767H41.7252L43.635 8.99994H27.9315ZM30.6922 20.402C29.9207 20.402 29.1807 20.7023 28.6352 21.2369C28.0896 21.7714 27.7831 22.4965 27.7831 23.2525C27.7831 24.0085 28.0896 24.7335 28.6352 25.2681C29.1807 25.8027 29.9207 26.103 30.6922 26.103C31.4638 26.103 32.2037 25.8027 32.7493 25.2681C33.2949 24.7335 33.6014 24.0085 33.6014 23.2525C33.6014 22.4965 33.2949 21.7714 32.7493 21.2369C32.2037 20.7023 31.4638 20.402 30.6922 20.402ZM40.8742 20.402C40.1027 20.402 39.3627 20.7023 38.8172 21.2369C38.2716 21.7714 37.9651 22.4965 37.9651 23.2525C37.9651 24.0085 38.2716 24.7335 38.8172 25.2681C39.3627 25.8027 40.1027 26.103 40.8742 26.103C41.6458 26.103 42.3857 25.8027 42.9313 25.2681C43.4769 24.7335 43.7834 24.0085 43.7834 23.2525C43.7834 22.4965 43.4769 21.7714 42.9313 21.2369C42.3857 20.7023 41.6458 20.402 40.8742 20.402ZM30.6922 21.8272C31.078 21.8272 31.448 21.9774 31.7208 22.2447C31.9936 22.512 32.1468 22.8745 32.1468 23.2525C32.1468 23.6305 31.9936 23.993 31.7208 24.2603C31.448 24.5276 31.078 24.6777 30.6922 24.6777C30.3065 24.6777 29.9365 24.5276 29.6637 24.2603C29.3909 23.993 29.2377 23.6305 29.2377 23.2525C29.2377 22.8745 29.3909 22.512 29.6637 22.2447C29.9365 21.9774 30.3065 21.8272 30.6922 21.8272ZM40.8742 21.8272C41.26 21.8272 41.63 21.9774 41.9028 22.2447C42.1756 22.512 42.3288 22.8745 42.3288 23.2525C42.3288 23.6305 42.1756 23.993 41.9028 24.2603C41.63 24.5276 41.26 24.6777 40.8742 24.6777C40.4885 24.6777 40.1185 24.5276 39.8457 24.2603C39.5729 23.993 39.4197 23.6305 39.4197 23.2525C39.4197 22.8745 39.5729 22.512 39.8457 22.2447C40.1185 21.9774 40.4885 21.8272 40.8742 21.8272Z" fill="white"/>
</svg>
