<svg width="24" height="25" viewBox="0 0 24 25" fill="none" xmlns="http://www.w3.org/2000/svg">
<path fill-rule="evenodd" clip-rule="evenodd" d="M17.5616 21.3124C17.4036 21.3124 17.2446 21.2754 17.0986 21.1994L11.9996 18.5354L6.90159 21.1994C6.56359 21.3744 6.15559 21.3444 5.84959 21.1204C5.54159 20.8964 5.38859 20.5174 5.45359 20.1424L6.42459 14.5144L2.30459 10.5294C2.03059 10.2644 1.93159 9.86641 2.04859 9.50241C2.16559 9.14041 2.47859 8.87541 2.85659 8.82141L8.55659 7.99341L11.1046 2.86741C11.4426 2.18741 12.5576 2.18741 12.8956 2.86741L15.4436 7.99341L21.1436 8.82141C21.5216 8.87541 21.8346 9.14041 21.9516 9.50241C22.0686 9.86641 21.9696 10.2644 21.6956 10.5294L17.5756 14.5144L18.5466 20.1424C18.6116 20.5174 18.4576 20.8964 18.1506 21.1204C17.9766 21.2484 17.7696 21.3124 17.5616 21.3124Z" fill="url(#paint0_linear_634_155)"/>
<defs>
<linearGradient id="paint0_linear_634_155" x1="12.0001" y1="2.35741" x2="12.0001" y2="21.3124" gradientUnits="userSpaceOnUse">
<stop stop-color="#FCA549"/>
<stop offset="1" stop-color="#F39531"/>
</linearGradient>
</defs>
</svg>
